<svg width="60" height="44" viewBox="0 0 60 44" fill="none" xmlns="http://www.w3.org/2000/svg">
<rect width="60" height="44" rx="10" fill="white"/>
<path d="M35.05 30.28C34.07 31.23 33 31.08 31.97 30.63C30.88 30.17 29.88 30.15 28.73 30.63C27.29 31.25 26.53 31.07 25.67 30.28C20.79 25.25 21.51 17.59 27.05 17.31C28.4 17.38 29.34 18.05 30.13 18.11C31.31 17.87 32.44 17.18 33.7 17.27C35.21 17.39 36.35 17.99 37.1 19.07C33.98 20.94 34.72 25.05 37.58 26.2C37.01 27.7 36.27 29.19 35.04 30.29L35.05 30.28ZM30.03 17.25C29.88 15.02 31.69 13.18 33.77 13C34.06 15.58 31.43 17.5 30.03 17.25Z" fill="black"/>
</svg>
