<svg width="60" height="44" viewBox="0 0 60 44" fill="none" xmlns="http://www.w3.org/2000/svg">
<rect width="60" height="44" rx="10" fill="white"/>
<path d="M30 31.375C28.4581 31.3753 26.94 30.9954 25.58 30.2688C24.2201 29.5421 23.0604 28.4913 22.2036 27.2094C21.3468 25.9275 20.8194 24.4541 20.6682 22.9196C20.517 21.3852 20.7465 19.8371 21.3365 18.4126C21.9265 16.9881 22.8588 15.7311 24.0507 14.7529C25.2426 13.7748 26.6573 13.1057 28.1696 12.805C29.6818 12.5043 31.2449 12.5812 32.7204 13.029C34.1958 13.4767 35.538 14.2814 36.6281 15.3719C36.733 15.4764 36.8162 15.6006 36.873 15.7373C36.9298 15.8741 36.959 16.0207 36.959 16.1688C36.959 16.3168 36.9298 16.4634 36.873 16.6002C36.8162 16.7369 36.733 16.8611 36.6281 16.9656C36.4147 17.1729 36.1288 17.2889 35.8312 17.2889C35.5337 17.2889 35.2478 17.1729 35.0344 16.9656C34.376 16.3004 33.5918 15.773 32.7274 15.414C31.8631 15.0551 30.9359 14.8719 30 14.875C28.6391 14.876 27.3069 15.2666 26.1611 16.0009C25.0152 16.7351 24.1036 17.7821 23.534 19.0181C22.9644 20.2541 22.7608 21.6273 22.9471 22.9754C23.1334 24.3235 23.7019 25.59 24.5853 26.6252C25.4687 27.6604 26.6302 28.4209 27.9322 28.8168C29.2343 29.2127 30.6224 29.2275 31.9326 28.8593C33.2428 28.4911 34.4201 27.7554 35.3253 26.7392C36.2305 25.723 36.8257 24.4688 37.0406 23.125H30C29.7016 23.125 29.4155 23.0065 29.2045 22.7955C28.9935 22.5845 28.875 22.2984 28.875 22C28.875 21.7016 28.9935 21.4155 29.2045 21.2045C29.4155 20.9935 29.7016 20.875 30 20.875H38.25C38.5484 20.875 38.8345 20.9935 39.0455 21.2045C39.2565 21.4155 39.375 21.7016 39.375 22C39.37 24.4849 38.3807 26.8666 36.6236 28.6237C34.8666 30.3807 32.4849 31.37 30 31.375Z" fill="black"/>
</svg>
